<?xml version="1.0" encoding="UTF-8"?>
<svg height="50" width="119" xmlns="http://www.w3.org/2000/svg" xmlns:xlink="http://www.w3.org/1999/xlink">
 <defs>
  <path id="a" d="m0 39.536h107.823v-39.491h-107.823z"/>
  <mask id="b" fill="#fff">
   <use fill="#fff" fill-rule="evenodd" xlink:href="#a"/>
  </mask>
 </defs>
 <g fill="none" fill-rule="evenodd">
  <path d="m1 0h118v50h-118z"/>
  <g fill="#000" transform="translate(5 5.16)">
   <path d="m.102.477.003 3.625h5.994v35.003h5.662v-35.003h5.828v-3.633z" mask="url(#b)"/>
   <path d="m0 .375.003 3.829h5.994v35.003h5.866v-35.003h5.828v-3.837zm.205.205 17.281-.009v3.429h-5.828v35.003h-5.456v-35.003h-5.995l-.002-3.421z" mask="url(#b)"/>
   <path d="m19.372 12.032v-1.65h-5.015v28.64h5.264s.069-19.066 0-21.13c-.083-2.476 3.647-2.64 3.647-2.64h1.74v-5.118c-2.818-.413-5.636 1.898-5.636 1.898" mask="url(#b)"/>
   <path d="m14.459 38.92h5.06c.005-1.506.065-19.064 0-21.024-.086-2.548 3.706-2.745 3.744-2.747h1.643v-4.926c-2.711-.341-5.442 1.865-5.47 1.888l-.167.137v-1.765h-4.81zm5.264.204h-5.469v-28.844h5.22v1.545c.653-.483 3.111-2.15 5.55-1.792l.087.013v5.307h-1.843c-.005 0-.926.045-1.822.387-1.176.448-1.756 1.172-1.723 2.15.068 2.041 0 20.942 0 21.132zm32.811-28.743-2.984 18.324-3.233-18.406h-5.471l5.637 28.805h4.228l5.305-28.723z" mask="url(#b)"/>
   <path d="m46.567 39.003h4.059l5.267-28.52h-3.272l-3.067 18.835-3.323-18.917h-5.26zm4.23.203h-4.398l-.017-.082-5.66-28.927h5.681l.015.084 3.128 17.81 2.901-17.811h3.692l-5.343 28.926zm12.738-27.091s2.238.082 2.321 4.21c.083 4.126 0 6.354 0 6.354h-4.642v-6.437s-.083-4.127 2.321-4.127zm2.487 15.187v6.355s-.083 3.466-2.321 3.384-2.487-3.384-2.487-3.384v-8.666h10.445c.829-15.6-8.041-15.022-8.041-15.022-8.621 1.073-8.041 12.298-8.041 12.298s-1.078 17.415 8.207 17.085c9.284-.33 7.792-12.05 7.792-12.05z" mask="url(#b)"/>
   <path d="m61.316 22.578h4.441c.015-.474.069-2.651-.003-6.252-.08-3.942-2.157-4.106-2.221-4.11-.468.001-.871.17-1.198.502-1.055 1.07-1.02 3.497-1.019 3.522zm4.639.203h-4.843v-6.54c-.002-.1-.038-2.533 1.077-3.666.367-.373.82-.562 1.346-.562h.004c.095.003 2.336.134 2.42 4.31.081 4.082 0 6.338 0 6.36zm-2.228-12.713c-.064 0-.1.002-.103.002-8.42 1.049-7.95 12.08-7.945 12.192-.006.12-.62 10.899 3.602 15.213 1.214 1.241 2.728 1.837 4.5 1.775 2.325-.082 4.168-.9 5.475-2.433 2.752-3.223 2.306-8.653 2.228-9.413h-5.36v6.253c-.002.085-.06 2.04-1.072 2.99-.373.348-.829.514-1.355.496-.958-.035-1.71-.653-2.174-1.786a6.207 6.207 0 0 1 -.411-1.692v-8.776h10.45c.308-6.06-.8-10.375-3.29-12.825-1.914-1.881-4.056-1.996-4.545-1.996zm-.2 29.39c-1.72 0-3.196-.618-4.393-1.84-4.286-4.38-3.666-15.248-3.66-15.357-.005-.102-.485-11.321 8.131-12.393.032-.003 2.58-.141 4.81 2.05 2.548 2.506 3.674 6.906 3.346 13.078l-.005.097h-10.44v8.564c.002.024.268 3.204 2.388 3.282.469.021.876-.13 1.207-.441.951-.89 1.008-2.824 1.008-2.843v-6.455h5.747l.011.089c.008.06.742 6.139-2.265 9.66-1.346 1.577-3.239 2.42-5.625 2.505a7.957 7.957 0 0 1 -.26.005zm24.114-27.343s2.24.082 2.322 4.21c.082 4.126 0 6.354 0 6.354h-4.643v-6.437s-.083-4.127 2.321-4.127zm2.487 15.187v6.355s-.083 3.466-2.32 3.384c-2.239-.082-2.488-3.384-2.488-3.384v-8.666h10.445c.83-15.6-8.04-15.022-8.04-15.022-8.622 1.073-8.042 12.298-8.042 12.298s-1.077 17.415 8.207 17.085c9.285-.33 7.792-12.05 7.792-12.05z" mask="url(#b)"/>
   <path d="m85.423 22.578h4.44c.015-.474.07-2.651-.003-6.252-.079-3.947-2.11-4.104-2.22-4.11-.469.001-.872.17-1.198.502-1.055 1.07-1.02 3.497-1.02 3.522v6.338zm4.638.203h-4.843v-6.54c-.002-.1-.038-2.533 1.077-3.666.368-.373.82-.562 1.347-.562h.003c.096.003 2.336.134 2.42 4.31.082 4.082 0 6.338 0 6.36zm-2.23-12.713c-.063 0-.097.002-.1.002-8.42 1.049-7.95 12.08-7.945 12.192-.007.12-.621 10.9 3.601 15.213 1.215 1.241 2.729 1.84 4.5 1.775 2.325-.082 4.168-.9 5.475-2.432 2.751-3.222 2.307-8.653 2.229-9.414h-5.36v6.253c-.002.085-.06 2.041-1.073 2.99a1.81 1.81 0 0 1 -1.354.496c-.959-.035-1.71-.653-2.174-1.786a6.198 6.198 0 0 1 -.412-1.692v-8.776h10.45c.308-6.057-.797-10.37-3.286-12.821-1.916-1.887-4.07-2-4.552-2zm-.197 29.39c-1.72 0-3.197-.618-4.393-1.84-4.286-4.38-3.666-15.248-3.66-15.357-.006-.102-.485-11.321 8.13-12.393.033-.003 2.581-.141 4.81 2.05 2.549 2.506 3.675 6.906 3.347 13.078l-.005.097h-10.44v8.564c.002.024.268 3.204 2.388 3.282.47.02.875-.13 1.207-.44.95-.89 1.007-2.825 1.008-2.844v-6.455h5.747l.011.089c.008.06.742 6.138-2.265 9.66-1.347 1.577-3.24 2.42-5.625 2.505a7.957 7.957 0 0 1 -.26.005zm-14.488-.353h5.056v-38.958h-5.056z" mask="url(#b)"/>
   <path d="m73.248 39.003h4.852v-38.754h-4.852zm-.204.204h5.26v-39.162h-5.26zm29.04-27.505v-1.65h-5.016v29.052h5.264s-.02-19.478 0-21.542c.025-2.477 3.648-2.641 3.648-2.641h1.74v-5.117c-2.818-.413-5.636 1.898-5.636 1.898" mask="url(#b)"/>
   <path d="m102.435 39.206h-5.47v-29.256h5.221v1.546c.653-.484 3.111-2.15 5.55-1.792l.087.013v5.307h-1.843c-.004 0-.9.045-1.782.386-1.16.45-1.753 1.174-1.763 2.154-.02 2.04 0 21.347 0 21.541v.102zm-66.936-6.072s-.222 2.45-2.156 2.476c-2.072.028-2.57-2.2-2.57-2.2v-6.961s.056-.908.58-1.486c.526-.578 3.4-2.118 4.146-2.779zm-2.045-23.083c-8.621.165-7.46 8.9-7.46 8.9h5.194v-3.781s.36-2.807 2.183-2.807c1.824 0 2.045 2.669 2.045 2.669v3.852c-.249.44-1.962 1.678-1.962 1.678-.663.44-1.432 1.026-3.482 2.394-2.514 1.678-3.62 3.466-3.62 3.466-1.602 2.531-1.145 8.542-.276 10.207.353.675 1.658 2.807 4.725 2.807s4.974-1.981 4.974-1.981v1.65h4.89v-20.139c0-9.409-7.211-8.914-7.211-8.914z" mask="url(#b)"/>
   <path d="m30.876 33.398c.019.077.152.579.493 1.07.488.701 1.157 1.05 1.973 1.04.758-.01 1.333-.408 1.71-1.184.274-.567.339-1.14.344-1.194v-10.73c-.408.313-1.108.744-1.844 1.196-.912.56-1.854 1.14-2.122 1.435-.494.544-.554 1.415-.554 1.424zm2.43 2.314c-2.099 0-2.627-2.258-2.632-2.28l-.003-.022v-6.961c.003-.045.064-.957.607-1.554.288-.317 1.2-.878 2.166-1.472.807-.497 1.642-1.01 1.987-1.315l.17-.15v11.186c-.003.025-.253 2.542-2.256 2.568h-.04zm.065-23.451c1.896 0 2.144 2.734 2.147 2.762v3.886l-.013.024c-.257.454-1.92 1.66-1.99 1.71-.25.166-.515.353-.85.589-.57.4-1.35.95-2.636 1.807-2.464 1.645-3.579 3.418-3.59 3.436-1.57 2.481-1.137 8.45-.272 10.106.432.828 1.749 2.752 4.634 2.752 2.99 0 4.881-1.93 4.9-1.95l.176-.183v1.803h4.687v-20.038c0-3.184-.827-5.567-2.457-7.082-2.03-1.886-4.62-1.732-4.646-1.73h-.005c-2.474.048-4.369.814-5.633 2.278-2.035 2.357-1.796 5.823-1.738 6.419h5v-3.681c.017-.131.394-2.908 2.286-2.908zm-2.57 27.275c-2.998 0-4.366-2-4.816-2.86-.882-1.69-1.322-7.777.28-10.31.012-.016 1.146-1.825 3.65-3.496 1.284-.856 2.063-1.405 2.631-1.805.337-.237.602-.424.851-.589.459-.331 1.684-1.26 1.916-1.621v-3.825c-.001-.017-.234-2.567-1.942-2.567-1.714 0-2.078 2.69-2.081 2.718v3.872h-5.386l-.012-.089c-.005-.04-.505-4.025 1.776-6.667 1.303-1.51 3.248-2.3 5.782-2.348.104-.006 2.735-.132 4.796 1.784 1.674 1.555 2.522 3.988 2.522 7.231v20.242h-5.095v-1.519c-.546.48-2.323 1.848-4.872 1.848zm-6.849-33.701c-.453 1.48-1.489 1.48-1.64 1.48-1.066 0-1.529-1.346-1.529-2.76 0-.923.221-3.048 1.67-3.048.443 0 1.167.2 1.419 1.368l1.378-.434c-.09-.389-.694-2.303-2.726-2.28-1.791 0-3.29 1.513-3.29 4.461 0 3.216 1.85 4.174 3.26 4.174 1.126 0 1.84-.59 2.273-1.191.362-.5.453-.924.553-1.347z" mask="url(#b)"/>
   <path d="m22.559.262h-.034c-1.937 0-3.189 1.712-3.189 4.36 0 3.875 2.63 4.072 3.157 4.072.905 0 1.642-.387 2.19-1.149.325-.448.422-.824.516-1.218l-1.18-.364c-.455 1.347-1.417 1.454-1.707 1.454-1.204 0-1.631-1.541-1.631-2.861 0-.527.085-3.151 1.772-3.151.438 0 1.2.177 1.493 1.34l1.18-.372c-.125-.451-.715-2.111-2.567-2.111m-.066 8.635c-.494 0-1.44-.118-2.23-.91-.75-.754-1.131-1.886-1.131-3.365 0-2.772 1.331-4.564 3.392-4.564h.035c1.769 0 2.586 1.48 2.79 2.36l.022.092-1.576.496-.023-.11c-.242-1.12-.93-1.287-1.319-1.287-1.492 0-1.567 2.454-1.567 2.947 0 1.226.373 2.658 1.426 2.658.335 0 1.154-.138 1.542-1.408l.03-.098 1.558.481-.034.141c-.097.411-.198.836-.558 1.334-.405.563-1.143 1.233-2.357 1.233m4.912-3.217c0 .378.03 1.97 1.066 1.97 1.046 0 1.077-1.625 1.077-2.137 0-.535-.111-1.914-1.057-1.914-.895 0-1.086 1.124-1.086 2.08m3.5-.033c0 2.181-1.237 3.094-2.414 3.094-1.076 0-2.444-.79-2.444-3.083 0-1.992 1.026-3.049 2.304-3.049 2.022 0 2.555 1.658 2.555 3.038" mask="url(#b)"/>
   <path d="m28.491 3.7c-.813 0-.984 1.077-.984 1.98 0 .561.094 1.867.964 1.867.805 0 .974-1.106.974-2.034 0-.425-.068-1.812-.954-1.812m-.02 4.05c-.742 0-1.168-.755-1.168-2.071 0-1.428.41-2.183 1.188-2.183 1.076 0 1.16 1.543 1.16 2.016 0 1.85-.642 2.238-1.18 2.238m-.12-5.04c-1.338 0-2.202 1.156-2.202 2.946 0 2.2 1.262 2.981 2.342 2.981 1.598 0 2.312-1.503 2.312-2.992 0-.883-.239-2.936-2.452-2.936m.14 6.132c-1.267 0-2.546-.985-2.546-3.185 0-1.914.944-3.15 2.406-3.15.799 0 2.657.305 2.657 3.14 0 2.207-1.264 3.195-2.517 3.195m6.514-6.222c-.996 0-1.6.634-1.861.912v-.812h-1.358v5.92h1.358v-4.062c.483-.49.845-.757 1.247-.757.423 0 .493.356.493.68v4.139h1.358v-4.507c0-.98-.402-1.514-1.237-1.514" mask="url(#b)"/>
   <path d="m34.987 8.538h1.153v-4.405c0-.95-.371-1.412-1.135-1.412-.959 0-1.539.617-1.786.88l-.178.189v-.97h-1.153v5.717h1.153v-4.001l.03-.03c.479-.485.867-.787 1.32-.787.395 0 .596.263.596.781zm1.358.204h-1.563v-4.242c0-.404-.117-.577-.39-.577-.374 0-.718.266-1.146.697v4.122h-1.563v-6.124h1.563v.662c.325-.316.899-.762 1.759-.762.611 0 1.34.28 1.34 1.615zm4.167-4.298c-.17-.222-.492-.578-.945-.578-1.006 0-1.056 1.402-1.056 1.847 0 .49.13 1.78 1.066 1.78.483 0 .785-.378.935-.567zm1.348-4.24v8.436h-1.358v-.68c-.17.201-.663.78-1.468.78-1.217 0-2.002-1.347-2.002-3.05 0-1.713.805-3.07 2.012-3.07.251 0 .865.044 1.458.778v-3.193h1.358z" mask="url(#b)"/>
   <path d="m39.567 3.968c-.83 0-.954 1.093-.954 1.745 0 .172.027 1.679.964 1.679.413 0 .681-.312.833-.502v-2.41c-.272-.345-.548-.512-.843-.512m.01 3.627c-.863 0-1.169-1.014-1.169-1.882 0-1.257.412-1.95 1.159-1.95.366 0 .711.209 1.027.62l.02.027v2.55l-.021.028c-.157.197-.484.606-1.016.606m-.533-4.874c-1.107 0-1.91 1.25-1.91 2.97 0 1.707.8 2.947 1.9 2.947.756 0 1.217-.54 1.39-.743l.18-.21v.853h1.154v-8.23h-1.153v3.38l-.182-.225c-.398-.491-.861-.74-1.38-.74m-.01 6.12c-1.219 0-2.104-1.325-2.104-3.151 0-1.839.89-3.173 2.115-3.173.596 0 1.047.299 1.356.612v-3.027h1.563v8.639h-1.563v-.517c-.257.259-.716.617-1.366.617m5.009-3.797c.06-1.09.624-1.413 1.077-1.413.382 0 1.066.245 1.116 1.413zm3.26-.79c-.272-.912-1.027-1.635-2.193-1.635-1.48 0-2.495 1.19-2.495 2.993 0 2.003 1.187 3.127 2.545 3.127 1.438 0 2.002-1.146 2.183-1.514l-1.107-.512c-.12.245-.382.824-1.066.824-.392 0-1.076-.234-1.127-1.591h3.4c.03-.512.05-1.035-.14-1.692z" mask="url(#b)"/>
   <path d="m44.153 4.943h1.975c-.094-1.149-.853-1.209-1.008-1.209-.206 0-.865.09-.967 1.21zm2.19.204h-2.408l.006-.107c.062-1.113.65-1.51 1.179-1.51.192 0 1.157.073 1.219 1.511zm-1.233-2.426c-1.43 0-2.392 1.162-2.392 2.892 0 2.078 1.266 3.025 2.443 3.025 1.27 0 1.828-.939 2.044-1.363l-.92-.426c-.142.28-.444.79-1.114.79-.274 0-1.17-.121-1.23-1.689l-.003-.105h3.41c.026-.504.027-.979-.143-1.561-.29-.978-1.074-1.563-2.095-1.563zm.05 6.12c-1.274 0-2.647-1.01-2.647-3.228 0-1.852 1.044-3.095 2.597-3.095 1.1 0 1.978.654 2.292 1.708.19.651.177 1.167.144 1.727l-.005.096h-3.39c.082 1.25.736 1.387 1.02 1.387.599 0 .836-.483.963-.743l.056-.113 1.292.598-.046.093c-.193.39-.775 1.57-2.275 1.57zm1.76-8.581h-1.6l-1.337 1.714h1.016z" mask="url(#b)"/>
   <path d="m44.192 1.872h.768l1.693-1.51h-1.283l-1.179 1.51zm.846.204h-1.264l1.496-1.918h1.917l-2.15 1.918zm10.096-1.749v5.575h-.02l-3.059-5.575h-1.559v8.313h1.47v-5.798h.019l3.159 5.798h1.459v-8.313z" mask="url(#b)"/>
   <path d="m55.205 8.538h1.295v-8.11h-1.264v5.576h-.163l-.05-.053-3.027-5.521h-1.396v8.109h1.264v-5.799h.163l.049.053 3.13 5.745zm1.5.204h-1.622l-3.016-5.535v5.535h-1.673v-8.517h1.722l2.915 5.315v-5.315h1.674zm3.982-3.147c-.505.106-1.838.39-1.838 1.317 0 .475.333.706.647.706.486 0 1-.453 1.191-.621zm1.22 1.739c0 .337.094.885.18 1.148h-1.237a5.087 5.087 0 0 1 -.115-.58c-.238.233-.695.675-1.485.675-.848 0-1.62-.558-1.62-1.549 0-1.464 1.458-2.096 3.058-2.233v-.17c0-.547-.353-.884-.857-.884-.563 0-.981.316-1.296.78l-.762-.706a2.51 2.51 0 0 1 2.077-1.033c.876 0 2.057.316 2.057 1.928z" mask="url(#b)"/>
   <path d="m60.585 5.721c-.545.118-1.634.406-1.634 1.191 0 .416.283.605.545.605.423 0 .895-.396 1.089-.566v-1.231zm-1.089 2c-.373 0-.75-.278-.75-.809 0-1.016 1.395-1.307 1.92-1.416l.123-.026v1.572l-.034.03c-.2.178-.731.648-1.259.648zm.334-4.082c.574 0 .96.397.96.987v.262l-.094.008c-.892.076-2.964.437-2.964 2.132 0 .994.786 1.447 1.517 1.447.752 0 1.182-.42 1.414-.645l.145-.141.028.2c.017.122.041.275.093.491h1.023a4.929 4.929 0 0 1 -.148-1.046v-2.624c0-1.51-1.063-1.826-1.955-1.826-.783 0-1.451.317-1.938.92l.607.563c.36-.483.8-.728 1.312-.728zm-.581 5.04c-.856 0-1.722-.567-1.722-1.65 0-1.293 1.113-2.138 3.058-2.327v-.076c0-.476-.297-.783-.755-.783-.473 0-.88.247-1.21.735l-.068.098-.917-.85.055-.073a2.618 2.618 0 0 1 2.16-1.073c.806 0 2.16.264 2.16 2.03v2.624c0 .33.093.862.176 1.117l.043.133h-1.459l-.019-.077a5.316 5.316 0 0 1 -.086-.396c-.269.241-.723.568-1.415.568zm6.066-3.579c-.554-.133-1.076-.255-1.076-.778 0-.345.311-.69.804-.69.352 0 .624.145 1.077.456l.13.09.785-.724c-.392-.323-1.026-.835-2.002-.835-1.197 0-2.062.835-2.062 1.836 0 1.458 1.348 1.77 1.931 1.881.543.1.996.256.996.712 0 .434-.453.59-.845.59-.664 0-1.086-.356-1.388-.612l-.825.634c.342.401.946 1.08 2.193 1.08 1.66 0 2.223-1.08 2.223-1.903 0-1.291-1.227-1.57-1.941-1.736" mask="url(#b)"/>
   <path d="m62.988 7.676c.326.375.907.962 2.045.962.788 0 2.121-.38 2.121-1.801 0-1.202-1.157-1.472-1.848-1.633l-.016-.004.024-.1-.035.097c-.563-.135-1.144-.275-1.144-.875 0-.39.34-.792.907-.792.38 0 .668.153 1.135.474l.063.043.639-.588c-.377-.305-.97-.738-1.847-.738-1.099 0-1.96.762-1.96 1.734 0 1.428 1.391 1.694 1.848 1.781.56.103 1.08.273 1.08.812 0 .511-.51.692-.948.692-.656 0-1.093-.332-1.39-.583l-.675.519zm2.045 1.166c-1.319 0-1.962-.754-2.27-1.116l-.07-.081.975-.75.063.053c.293.248.693.588 1.322.588.343 0 .743-.128.743-.488 0-.32-.256-.49-.912-.612-1.338-.255-2.015-.921-2.015-1.98 0-1.087.95-1.938 2.164-1.938 1.024 0 1.677.537 2.067.857l.09.075-.93.857-.198-.134c-.44-.304-.692-.439-1.019-.439-.44 0-.702.299-.702.588 0 .41.373.53.987.677l-.013.102.023-.1-.023.1.038-.096c.7.164 2.006.469 2.006 1.832 0 .998-.72 2.005-2.326 2.005zm6.007-5.043v-1.08h-.946v-1.912h-1.358v1.913h-.815v1.079h.815v3.15c0 .589.201 1.168.674 1.513.382.289.865.3 1.63.267v-1.224c-.513-.011-.946-.045-.946-.557v-3.15h.946z" mask="url(#b)"/>
   <path d="m68.024 3.697h.814v3.251c0 .362.082 1.03.632 1.432.35.264.814.277 1.467.25v-1.025c-.427-.012-.945-.067-.945-.656v-3.252h.945v-.876h-.945v-1.914h-1.154v1.914h-.814zm2.519 5.147c-.495 0-.875-.059-1.195-.301-.46-.336-.714-.903-.714-1.595v-3.047h-.815v-1.283h.815v-1.914h1.562v1.914h.946v1.282h-.946v3.047c0 .376.25.442.846.455l.1.002v1.421l-.098.004c-.18.008-.346.014-.501.014z" mask="url(#b)"/>
  </g>
 </g>
</svg>
