<svg viewBox="0 0 224.13 50.35" xmlns="http://www.w3.org/2000/svg"><path d="m177.74 24.35h.3a25.36 25.36 0 0 0 7.3-.42 10.06 10.06 0 0 0  5.66-3.18 8.67 8.67 0 0 0  1.52-9.44 8.41 8.41 0 0 0 -5.76-5.21 26.37 26.37 0 0 0 -7.91-.92h-1c0 6.39-.09 12.75-.13 19.13zm.06 3.79c0 .76 0 1.48 0 2.19q0 5.72 0 11.44a1.93 1.93 0 0 0 2.09 2.1h4.77v5h-35.47v-5.08c.49 0 1 0 1.49 0 1.34 0 2.69 0 4-.11a1.35 1.35 0 0 0 1.32-1.55q0-17.13 0-34.23a.9.9 0 0 0 -.58-.94 5.76 5.76 0 0 0 -1.62-.36c-1.42 0-2.84 0-4.27 0h-.37v-5h10 17.1 5.74c3.46 0 6.92 0 10.38.08a46.66 46.66 0 0 1 14 2.89 15.51 15.51 0 0 1  4.78 3 8.83 8.83 0 0 1  2.91 6.21 10.11 10.11 0 0 1 -5.07 9.65 20.32 20.32 0 0 1 -6.57 2.51c-1.73.36-3.49.59-5.24.88l-1.2.2c.39.51.74 1 1.11 1.44a53.75 53.75 0 0 0 12.73 11.59 27.68 27.68 0 0 0  10.05 3.75c1.33.25 2.68.37 4 .54.16 0 .26 0 .26.25 0 1.43 0 2.86 0 4.35h-.92l-8.36-.11c-2.42 0-4.85 0-7.27-.14a28.15 28.15 0 0 1 -9.16-2 19 19 0 0 1 -5.17-3.45 49.29 49.29 0 0 1 -11.06-14.34c-.41-.79-.4-.79-1.28-.79z" fill-rule="evenodd"/><path d="m1.09 33.48h.35 4.56a.53.53 0 0 1  .48.26 37.54 37.54 0 0 0  3.76 4.69 23.54 23.54 0 0 0  12.9 6.57 47 47 0 0 0  9.38.66c2.31-.07 4.63-.18 6.92-.44a15.11 15.11 0 0 0 5.78-1.76 5.07 5.07 0 0 0  2.53-2.8 3.8 3.8 0 0 0 -1.81-4.61 19.27 19.27 0 0 0 -6.13-2c-2.32-.37-4.65-.64-7-.94-1.93-.25-3.87-.49-5.8-.75-2.34-.31-4.68-.6-7-1a44.17 44.17 0 0 1 -11.43-3.36 17.51 17.51 0 0 1 -5.68-4 10.68 10.68 0 0 1 -2.88-7 11 11 0 0 1  3.57-8.55 22.88 22.88 0 0 1  7.51-4.65 49.17 49.17 0 0 1  10.74-2.92c1.89-.31 3.8-.49 5.71-.63 2.25-.16 4.45-.25 6.74-.25 3.27.09 6.55.14 9.8.43a81.13 81.13 0 0 1 14.5 2.37c1.38.38 2.72.87 4.08 1.31a.31.31 0 0 1  .27.34q0 5.09 0 10.19c0 .05 0 .11 0 .18h-.3-4a .48.48 0 0 1 -.45-.24 21.63 21.63 0 0 0 -8-7.13 23.56 23.56 0 0 0 -6.7-2.17 60.1 60.1 0 0 0 -8-.74 33.38 33.38 0 0 0 -6.72.35 19.6 19.6 0 0 0 -6 1.77 6.47 6.47 0 0 0 -2.19 1.77 4 4 0 0 0  .7 5.2 9.28 9.28 0 0 0  3.48 1.63c1.84.46 3.68.89 5.55 1.17 3.47.53 7 1 10.44 1.42a95.6 95.6 0 0 1 13.77 2.51 30.9 30.9 0 0 1  8.11 3.38 13.8 13.8 0 0 1  4.75 4.65 11.23 11.23 0 0 1 -1.57 13.39 20.22 20.22 0 0 1 -6.77 4.39 45.73 45.73 0 0 1 -9.15 2.64c-3.18.62-6.4 1-9.62 1.3-1.42.13-2.86.14-4.29.16-2.55 0-5.09.05-7.64 0a52.12 52.12 0 0 1 -7.21-.54c-3.24-.47-6.48-.91-9.69-1.51a46.29 46.29 0 0 1 -8.58-2.51c-.21-.09-.24-.23-.26-.4q-.34-2.44-.68-4.88c-.26-1.88-.52-3.75-.76-5.63-.06-.45-.06-.9-.09-1.39z" fill-rule="evenodd"/><path d="m119.88 1.53h24.43v5.17h-5.48a1.71 1.71 0 0 0 -1.27.54 1 1 0 0 0 -.23.65q0 12.24 0 24.48a13.4 13.4 0 0 1 -4.73 10.46 24.18 24.18 0 0 1 -8.24 4.63 42.14 42.14 0 0 1 -12.42 2.34 88.61 88.61 0 0 1 -11-.16 46.12 46.12 0 0 1 -14.54-3.37 20.09 20.09 0 0 1 -6.57-4.27 11.24 11.24 0 0 1 -3.25-6.85 35.94 35.94 0 0 1 -.19-3.66q0-11.79 0-23.59a1.05 1.05 0 0 0 -1-1.22 5 5 0 0 0 -.85-.06h-4.95-.19v-5h36.46v5.08h-5.48a1.47 1.47 0 0 0 -1.52 1.5q0 10.14 0 20.28c0 1.51 0 3 .07 4.53a10.26 10.26 0 0 0 2.44 6.46 12.28 12.28 0 0 0  5 3.22 17.55 17.55 0 0 0  5.84 1 30 30 0 0 0  6.94-.52 14.29 14.29 0 0 0  6.43-3 10.1 10.1 0 0 0  3.49-6.69 26.39 26.39 0 0 0  .15-3q0-8.35 0-16.7c0-1.91 0-3.81 0-5.72a1.12 1.12 0 0 0 -.68-1.1 4.43 4.43 0 0 0 -2-.39h-6.74v-5.04z" fill-rule="evenodd"/></svg>